<?xml version="1.0" standalone="no"?>
<!DOCTYPE svg PUBLIC "-//W3C//DTD SVG 20010904//EN"
 "http://www.w3.org/TR/2001/REC-SVG-20010904/DTD/svg10.dtd">
<svg version="1.0" xmlns="http://www.w3.org/2000/svg"
 width="303.000000pt" height="303.000000pt" viewBox="0 0 303.000000 303.000000"
 preserveAspectRatio="xMidYMid meet">
<metadata>
Created by potrace 1.11, written by Peter Selinger 2001-2013
</metadata>
<g transform="translate(0.000000,303.000000) scale(0.100000,-0.100000)"
fill="#000000" stroke="none">
<path d="M2573 2808 c-87 -102 -371 -437 -472 -557 -35 -42 -128 -150 -205
-241 -131 -152 -341 -399 -561 -659 -258 -305 -532 -629 -551 -651 -12 -14
-83 -97 -157 -185 l-135 -160 192 -3 c188 -3 191 -2 210 20 10 13 73 88 141
168 565 668 569 672 580 657 5 -8 80 -148 165 -311 l155 -296 349 0 c327 0
348 1 341 17 -3 10 -144 258 -312 551 l-305 533 49 57 c27 31 87 102 133 157
100 119 300 355 315 371 5 7 38 45 72 85 34 41 147 175 252 299 105 124 191
228 191 233 0 4 -83 7 -184 7 l-183 0 -80 -92z"/>
<path d="M2130 2654 c-58 -69 -136 -163 -175 -208 -38 -46 -162 -192 -275
-326 -113 -133 -288 -340 -390 -459 -102 -120 -243 -286 -315 -371 -71 -84
-200 -235 -285 -334 -85 -100 -174 -204 -197 -231 -23 -28 -143 -169 -267
-315 -124 -146 -226 -268 -226 -271 0 -3 41 -6 90 -6 l90 1 133 155 c73 86
209 246 302 356 93 110 199 234 235 275 36 42 88 102 115 135 28 32 95 111
150 175 99 116 256 301 575 680 91 107 174 206 186 220 12 14 86 102 166 195
79 94 193 229 254 300 60 72 113 136 118 143 5 9 -14 12 -86 11 l-93 0 -105
-125z"/>
<path d="M750 2714 c0 -9 331 -587 346 -604 7 -8 27 -43 44 -77 17 -35 34 -63
38 -63 4 0 15 -20 25 -44 22 -53 73 -136 84 -136 5 0 49 48 98 107 50 59 132
155 183 214 l93 108 -126 250 -125 251 -330 0 c-182 0 -330 -3 -330 -6z"/>
</g>
</svg>
